<?xml version="1.0" standalone="no"?>
<!DOCTYPE svg PUBLIC "-//W3C//DTD SVG 20010904//EN"
 "http://www.w3.org/TR/2001/REC-SVG-20010904/DTD/svg10.dtd">
<svg version="1.0" xmlns="http://www.w3.org/2000/svg"
 width="177.000000pt" height="70.000000pt" viewBox="0 0 177.000000 70.000000"
 preserveAspectRatio="xMidYMid meet">
    <g transform="translate(0.000000,70.000000) scale(0.100000,-0.100000)"
fill="#000000" stroke="none">
        <path d="M430 563 c-19 -10 -45 -33 -57 -52 -62 -92 12 -216 122 -209 57 4 54
30 -4 40 -79 13 -118 76 -87 137 18 35 39 48 93 59 23 5 38 14 38 22 0 22 -64
24 -105 3z"/>
        <path fill="#ED1C24" d="M57 544 c-11 -12 -8 -59 5 -72 16 -16 53 -15 67 2 7 8 11 27 9 43 -3
24 -8 28 -38 31 -20 2 -39 0 -43 -4z"/>
        <path fill="#30A651" d="M178 425 c-9 -21 -8 -28 7 -45 10 -11 26 -20 35 -20 9 0 25 9 35 20
27 30 7 70 -35 70 -23 0 -33 -6 -42 -25z"/>
        <path fill="#39AEEF" d="M34 382 c-9 -21 -8 -28 7 -45 10 -11 26 -20 35 -20 9 0 25 9 35 20
27 30 7 70 -35 70 -23 0 -33 -6 -42 -25z"/>
        <path d="M597 574 c-15 -15 -7 -159 11 -194 21 -42 75 -80 113 -80 45 0 39 34
-8 46 -56 14 -76 50 -83 146 -5 74 -15 100 -33 82z"/>
        <path d="M845 566 c-50 -22 -77 -60 -83 -114 -8 -87 50 -152 137 -152 34 0 41
3 41 20 0 16 -7 20 -36 20 -28 0 -44 8 -71 35 -32 32 -35 40 -30 73 8 46 45
80 98 88 29 5 39 11 39 25 0 15 -7 19 -32 19 -18 -1 -46 -7 -63 -14z"/>
        <path d="M1071 563 c-89 -46 -106 -157 -35 -227 14 -15 13 -19 -10 -47 -32
-37 -40 -68 -32 -114 19 -99 141 -146 220 -84 53 41 77 129 36 129 -11 0 -20
-7 -20 -15 0 -32 -32 -77 -66 -91 -48 -20 -99 1 -120 51 -28 67 8 118 94 135
65 12 96 32 116 75 57 120 -68 249 -183 188z m94 -37 c97 -41 70 -181 -35
-181 -102 0 -131 139 -38 180 41 18 33 18 73 1z"/>
        <path d="M1394 566 c-17 -8 -42 -29 -55 -47 -21 -30 -24 -45 -24 -124 0 -77 2
-90 18 -93 15 -3 17 5 17 56 0 33 3 73 6 91 8 38 46 78 85 86 20 5 29 13 29
26 0 23 -30 25 -76 5z"/>
        <path d="M1564 566 c-129 -58 -97 -250 45 -264 36 -3 58 0 75 12 31 20 36 20
36 1 0 -8 9 -15 20 -15 18 0 20 7 20 88 0 95 -16 135 -64 167 -35 23 -95 28
-132 11z m114 -53 c52 -32 51 -105 -1 -149 -24 -21 -38 -25 -65 -20 -42 6 -61
22 -79 64 -18 44 2 92 48 115 35 17 58 15 97 -10z"/>
        <path d="M435 450 c-9 -15 2 -27 32 -33 36 -7 53 1 53 24 0 15 -7 19 -39 19
-22 0 -43 -4 -46 -10z"/>
        <path d="M845 450 c-10 -16 2 -27 35 -32 36 -5 55 5 47 26 -7 18 -72 23 -82 6z"/>
    </g>
</svg>